ISO-10303-21;
HEADER;
/* Generated by software containing ST-Developer
 * from STEP Tools, Inc. (www.steptools.com) 
 */

FILE_DESCRIPTION(
/* description */ (''),
/* implementation_level */ '2;1');

FILE_NAME(
/* name */ 'aDAPTER_ZAXIS.step',
/* time_stamp */ '2026-07-12T17:05:18+02:00',
/* author */ (''),
/* organization */ (''),
/* preprocessor_version */ 'ST-DEVELOPER v20.1',
/* originating_system */ 'Autodesk Translation Framework v15.8.0.0',
/* authorisation */ '');

FILE_SCHEMA (('AUTOMOTIVE_DESIGN { 1 0 10303 214 3 1 1 }'));
ENDSEC;

DATA;
#10=MECHANICAL_DESIGN_GEOMETRIC_PRESENTATION_REPRESENTATION('',(#13),#1063);
#11=SHAPE_REPRESENTATION_RELATIONSHIP('SRR','None',#1069,#12);
#12=ADVANCED_BREP_SHAPE_REPRESENTATION('',(#14),#1062);
#13=STYLED_ITEM('',(#1078),#14);
#14=MANIFOLD_SOLID_BREP('adapter_zaxis',#647);
#15=FACE_BOUND('',#95,.T.);
#16=FACE_BOUND('',#98,.T.);
#17=FACE_BOUND('',#101,.T.);
#18=FACE_BOUND('',#104,.T.);
#19=FACE_BOUND('',#130,.T.);
#20=FACE_BOUND('',#131,.T.);
#21=FACE_BOUND('',#132,.T.);
#22=FACE_BOUND('',#133,.T.);
#23=FACE_BOUND('',#134,.T.);
#24=FACE_BOUND('',#135,.T.);
#25=FACE_BOUND('',#136,.T.);
#26=FACE_BOUND('',#137,.T.);
#27=FACE_BOUND('',#138,.T.);
#28=FACE_BOUND('',#140,.T.);
#29=FACE_BOUND('',#141,.T.);
#30=FACE_BOUND('',#142,.T.);
#31=FACE_BOUND('',#143,.T.);
#32=FACE_BOUND('',#144,.T.);
#33=FACE_BOUND('',#145,.T.);
#34=FACE_BOUND('',#146,.T.);
#35=FACE_BOUND('',#147,.T.);
#36=FACE_BOUND('',#148,.T.);
#37=PLANE('',#652);
#38=PLANE('',#657);
#39=PLANE('',#662);
#40=PLANE('',#667);
#41=PLANE('',#689);
#42=PLANE('',#690);
#43=PLANE('',#691);
#44=PLANE('',#692);
#45=PLANE('',#693);
#46=PLANE('',#694);
#47=PLANE('',#695);
#48=PLANE('',#696);
#49=PLANE('',#697);
#50=PLANE('',#698);
#51=PLANE('',#699);
#52=PLANE('',#700);
#53=PLANE('',#701);
#54=PLANE('',#702);
#55=PLANE('',#703);
#56=PLANE('',#704);
#57=PLANE('',#705);
#58=PLANE('',#706);
#59=FACE_OUTER_BOUND('',#93,.T.);
#60=FACE_OUTER_BOUND('',#94,.T.);
#61=FACE_OUTER_BOUND('',#96,.T.);
#62=FACE_OUTER_BOUND('',#97,.T.);
#63=FACE_OUTER_BOUND('',#99,.T.);
#64=FACE_OUTER_BOUND('',#100,.T.);
#65=FACE_OUTER_BOUND('',#102,.T.);
#66=FACE_OUTER_BOUND('',#103,.T.);
#67=FACE_OUTER_BOUND('',#105,.T.);
#68=FACE_OUTER_BOUND('',#106,.T.);
#69=FACE_OUTER_BOUND('',#107,.T.);
#70=FACE_OUTER_BOUND('',#108,.T.);
#71=FACE_OUTER_BOUND('',#109,.T.);
#72=FACE_OUTER_BOUND('',#110,.T.);
#73=FACE_OUTER_BOUND('',#111,.T.);
#74=FACE_OUTER_BOUND('',#112,.T.);
#75=FACE_OUTER_BOUND('',#113,.T.);
#76=FACE_OUTER_BOUND('',#114,.T.);
#77=FACE_OUTER_BOUND('',#115,.T.);
#78=FACE_OUTER_BOUND('',#116,.T.);
#79=FACE_OUTER_BOUND('',#117,.T.);
#80=FACE_OUTER_BOUND('',#118,.T.);
#81=FACE_OUTER_BOUND('',#119,.T.);
#82=FACE_OUTER_BOUND('',#120,.T.);
#83=FACE_OUTER_BOUND('',#121,.T.);
#84=FACE_OUTER_BOUND('',#122,.T.);
#85=FACE_OUTER_BOUND('',#123,.T.);
#86=FACE_OUTER_BOUND('',#124,.T.);
#87=FACE_OUTER_BOUND('',#125,.T.);
#88=FACE_OUTER_BOUND('',#126,.T.);
#89=FACE_OUTER_BOUND('',#127,.T.);
#90=FACE_OUTER_BOUND('',#128,.T.);
#91=FACE_OUTER_BOUND('',#129,.T.);
#92=FACE_OUTER_BOUND('',#139,.T.);
#93=EDGE_LOOP('',(#433,#434,#435,#436));
#94=EDGE_LOOP('',(#437));
#95=EDGE_LOOP('',(#438));
#96=EDGE_LOOP('',(#439,#440,#441,#442));
#97=EDGE_LOOP('',(#443));
#98=EDGE_LOOP('',(#444));
#99=EDGE_LOOP('',(#445,#446,#447,#448));
#100=EDGE_LOOP('',(#449));
#101=EDGE_LOOP('',(#450));
#102=EDGE_LOOP('',(#451,#452,#453,#454));
#103=EDGE_LOOP('',(#455));
#104=EDGE_LOOP('',(#456));
#105=EDGE_LOOP('',(#457,#458,#459,#460));
#106=EDGE_LOOP('',(#461,#462,#463,#464));
#107=EDGE_LOOP('',(#465,#466,#467,#468));
#108=EDGE_LOOP('',(#469,#470,#471,#472));
#109=EDGE_LOOP('',(#473,#474,#475,#476));
#110=EDGE_LOOP('',(#477,#478,#479,#480));
#111=EDGE_LOOP('',(#481,#482,#483,#484));
#112=EDGE_LOOP('',(#485,#486,#487,#488));
#113=EDGE_LOOP('',(#489,#490,#491,#492));
#114=EDGE_LOOP('',(#493,#494,#495,#496));
#115=EDGE_LOOP('',(#497,#498,#499,#500));
#116=EDGE_LOOP('',(#501,#502,#503,#504));
#117=EDGE_LOOP('',(#505,#506,#507,#508));
#118=EDGE_LOOP('',(#509,#510,#511,#512));
#119=EDGE_LOOP('',(#513,#514,#515,#516));
#120=EDGE_LOOP('',(#517,#518,#519,#520));
#121=EDGE_LOOP('',(#521,#522,#523,#524));
#122=EDGE_LOOP('',(#525,#526,#527,#528));
#123=EDGE_LOOP('',(#529,#530,#531,#532));
#124=EDGE_LOOP('',(#533,#534,#535,#536));
#125=EDGE_LOOP('',(#537,#538,#539,#540));
#126=EDGE_LOOP('',(#541,#542,#543,#544));
#127=EDGE_LOOP('',(#545,#546,#547,#548));
#128=EDGE_LOOP('',(#549,#550,#551,#552));
#129=EDGE_LOOP('',(#553,#554,#555,#556,#557,#558,#559,#560));
#130=EDGE_LOOP('',(#561));
#131=EDGE_LOOP('',(#562));
#132=EDGE_LOOP('',(#563));
#133=EDGE_LOOP('',(#564));
#134=EDGE_LOOP('',(#565));
#135=EDGE_LOOP('',(#566));
#136=EDGE_LOOP('',(#567));
#137=EDGE_LOOP('',(#568));
#138=EDGE_LOOP('',(#569,#570,#571,#572,#573,#574,#575,#576));
#139=EDGE_LOOP('',(#577,#578,#579,#580,#581,#582,#583,#584));
#140=EDGE_LOOP('',(#585));
#141=EDGE_LOOP('',(#586));
#142=EDGE_LOOP('',(#587));
#143=EDGE_LOOP('',(#588));
#144=EDGE_LOOP('',(#589));
#145=EDGE_LOOP('',(#590));
#146=EDGE_LOOP('',(#591));
#147=EDGE_LOOP('',(#592));
#148=EDGE_LOOP('',(#593,#594,#595,#596,#597,#598,#599,#600));
#149=LINE('',#890,#209);
#150=LINE('',#899,#210);
#151=LINE('',#908,#211);
#152=LINE('',#917,#212);
#153=LINE('',#924,#213);
#154=LINE('',#928,#214);
#155=LINE('',#932,#215);
#156=LINE('',#936,#216);
#157=LINE('',#942,#217);
#158=LINE('',#948,#218);
#159=LINE('',#954,#219);
#160=LINE('',#960,#220);
#161=LINE('',#965,#221);
#162=LINE('',#967,#222);
#163=LINE('',#969,#223);
#164=LINE('',#970,#224);
#165=LINE('',#973,#225);
#166=LINE('',#975,#226);
#167=LINE('',#976,#227);
#168=LINE('',#979,#228);
#169=LINE('',#981,#229);
#170=LINE('',#982,#230);
#171=LINE('',#985,#231);
#172=LINE('',#987,#232);
#173=LINE('',#988,#233);
#174=LINE('',#991,#234);
#175=LINE('',#993,#235);
#176=LINE('',#994,#236);
#177=LINE('',#997,#237);
#178=LINE('',#999,#238);
#179=LINE('',#1000,#239);
#180=LINE('',#1003,#240);
#181=LINE('',#1005,#241);
#182=LINE('',#1006,#242);
#183=LINE('',#1008,#243);
#184=LINE('',#1009,#244);
#185=LINE('',#1013,#245);
#186=LINE('',#1015,#246);
#187=LINE('',#1017,#247);
#188=LINE('',#1018,#248);
#189=LINE('',#1021,#249);
#190=LINE('',#1023,#250);
#191=LINE('',#1024,#251);
#192=LINE('',#1027,#252);
#193=LINE('',#1029,#253);
#194=LINE('',#1030,#254);
#195=LINE('',#1033,#255);
#196=LINE('',#1035,#256);
#197=LINE('',#1036,#257);
#198=LINE('',#1039,#258);
#199=LINE('',#1041,#259);
#200=LINE('',#1042,#260);
#201=LINE('',#1045,#261);
#202=LINE('',#1047,#262);
#203=LINE('',#1048,#263);
#204=LINE('',#1051,#264);
#205=LINE('',#1053,#265);
#206=LINE('',#1054,#266);
#207=LINE('',#1056,#267);
#208=LINE('',#1057,#268);
#209=VECTOR('',#713,4.5);
#210=VECTOR('',#724,4.5);
#211=VECTOR('',#735,4.5);
#212=VECTOR('',#746,4.5);
#213=VECTOR('',#755,2.75);
#214=VECTOR('',#760,2.75);
#215=VECTOR('',#765,2.75);
#216=VECTOR('',#770,2.75);
#217=VECTOR('',#777,3.25);
#218=VECTOR('',#784,3.25);
#219=VECTOR('',#791,3.25000000000001);
#220=VECTOR('',#798,3.24999999999999);
#221=VECTOR('',#803,10.);
#222=VECTOR('',#804,10.);
#223=VECTOR('',#805,10.);
#224=VECTOR('',#806,10.);
#225=VECTOR('',#809,10.);
#226=VECTOR('',#810,10.);
#227=VECTOR('',#811,10.);
#228=VECTOR('',#814,10.);
#229=VECTOR('',#815,10.);
#230=VECTOR('',#816,10.);
#231=VECTOR('',#819,10.);
#232=VECTOR('',#820,10.);
#233=VECTOR('',#821,10.);
#234=VECTOR('',#824,10.);
#235=VECTOR('',#825,10.);
#236=VECTOR('',#826,10.);
#237=VECTOR('',#829,10.);
#238=VECTOR('',#830,10.);
#239=VECTOR('',#831,10.);
#240=VECTOR('',#834,10.);
#241=VECTOR('',#835,10.);
#242=VECTOR('',#836,10.);
#243=VECTOR('',#839,10.);
#244=VECTOR('',#840,10.);
#245=VECTOR('',#843,10.);
#246=VECTOR('',#844,10.);
#247=VECTOR('',#845,10.);
#248=VECTOR('',#846,10.);
#249=VECTOR('',#849,10.);
#250=VECTOR('',#850,10.);
#251=VECTOR('',#851,10.);
#252=VECTOR('',#854,10.);
#253=VECTOR('',#855,10.);
#254=VECTOR('',#856,10.);
#255=VECTOR('',#859,10.);
#256=VECTOR('',#860,10.);
#257=VECTOR('',#861,10.);
#258=VECTOR('',#864,10.);
#259=VECTOR('',#865,10.);
#260=VECTOR('',#866,10.);
#261=VECTOR('',#869,10.);
#262=VECTOR('',#870,10.);
#263=VECTOR('',#871,10.);
#264=VECTOR('',#874,10.);
#265=VECTOR('',#875,10.);
#266=VECTOR('',#876,10.);
#267=VECTOR('',#879,10.);
#268=VECTOR('',#880,10.);
#269=CIRCLE('',#650,4.5);
#270=CIRCLE('',#651,4.5);
#271=CIRCLE('',#653,2.75);
#272=CIRCLE('',#655,4.5);
#273=CIRCLE('',#656,4.5);
#274=CIRCLE('',#658,2.75);
#275=CIRCLE('',#660,4.5);
#276=CIRCLE('',#661,4.5);
#277=CIRCLE('',#663,2.75);
#278=CIRCLE('',#665,4.5);
#279=CIRCLE('',#666,4.5);
#280=CIRCLE('',#668,2.75);
#281=CIRCLE('',#670,2.75);
#282=CIRCLE('',#672,2.75);
#283=CIRCLE('',#674,2.75);
#284=CIRCLE('',#676,2.75);
#285=CIRCLE('',#678,3.25);
#286=CIRCLE('',#679,3.25);
#287=CIRCLE('',#681,3.25);
#288=CIRCLE('',#682,3.25);
#289=CIRCLE('',#684,3.25000000000001);
#290=CIRCLE('',#685,3.25000000000001);
#291=CIRCLE('',#687,3.24999999999999);
#292=CIRCLE('',#688,3.24999999999999);
#293=VERTEX_POINT('',#887);
#294=VERTEX_POINT('',#889);
#295=VERTEX_POINT('',#893);
#296=VERTEX_POINT('',#896);
#297=VERTEX_POINT('',#898);
#298=VERTEX_POINT('',#902);
#299=VERTEX_POINT('',#905);
#300=VERTEX_POINT('',#907);
#301=VERTEX_POINT('',#911);
#302=VERTEX_POINT('',#914);
#303=VERTEX_POINT('',#916);
#304=VERTEX_POINT('',#920);
#305=VERTEX_POINT('',#923);
#306=VERTEX_POINT('',#927);
#307=VERTEX_POINT('',#931);
#308=VERTEX_POINT('',#935);
#309=VERTEX_POINT('',#939);
#310=VERTEX_POINT('',#941);
#311=VERTEX_POINT('',#945);
#312=VERTEX_POINT('',#947);
#313=VERTEX_POINT('',#951);
#314=VERTEX_POINT('',#953);
#315=VERTEX_POINT('',#957);
#316=VERTEX_POINT('',#959);
#317=VERTEX_POINT('',#963);
#318=VERTEX_POINT('',#964);
#319=VERTEX_POINT('',#966);
#320=VERTEX_POINT('',#968);
#321=VERTEX_POINT('',#972);
#322=VERTEX_POINT('',#974);
#323=VERTEX_POINT('',#978);
#324=VERTEX_POINT('',#980);
#325=VERTEX_POINT('',#984);
#326=VERTEX_POINT('',#986);
#327=VERTEX_POINT('',#990);
#328=VERTEX_POINT('',#992);
#329=VERTEX_POINT('',#996);
#330=VERTEX_POINT('',#998);
#331=VERTEX_POINT('',#1002);
#332=VERTEX_POINT('',#1004);
#333=VERTEX_POINT('',#1011);
#334=VERTEX_POINT('',#1012);
#335=VERTEX_POINT('',#1014);
#336=VERTEX_POINT('',#1016);
#337=VERTEX_POINT('',#1020);
#338=VERTEX_POINT('',#1022);
#339=VERTEX_POINT('',#1026);
#340=VERTEX_POINT('',#1028);
#341=VERTEX_POINT('',#1032);
#342=VERTEX_POINT('',#1034);
#343=VERTEX_POINT('',#1038);
#344=VERTEX_POINT('',#1040);
#345=VERTEX_POINT('',#1044);
#346=VERTEX_POINT('',#1046);
#347=VERTEX_POINT('',#1050);
#348=VERTEX_POINT('',#1052);
#349=EDGE_CURVE('',#293,#293,#269,.T.);
#350=EDGE_CURVE('',#293,#294,#149,.T.);
#351=EDGE_CURVE('',#294,#294,#270,.T.);
#352=EDGE_CURVE('',#295,#295,#271,.T.);
#353=EDGE_CURVE('',#296,#296,#272,.T.);
#354=EDGE_CURVE('',#296,#297,#150,.T.);
#355=EDGE_CURVE('',#297,#297,#273,.T.);
#356=EDGE_CURVE('',#298,#298,#274,.T.);
#357=EDGE_CURVE('',#299,#299,#275,.T.);
#358=EDGE_CURVE('',#299,#300,#151,.T.);
#359=EDGE_CURVE('',#300,#300,#276,.T.);
#360=EDGE_CURVE('',#301,#301,#277,.T.);
#361=EDGE_CURVE('',#302,#302,#278,.T.);
#362=EDGE_CURVE('',#302,#303,#152,.T.);
#363=EDGE_CURVE('',#303,#303,#279,.T.);
#364=EDGE_CURVE('',#304,#304,#280,.T.);
#365=EDGE_CURVE('',#304,#305,#153,.T.);
#366=EDGE_CURVE('',#305,#305,#281,.T.);
#367=EDGE_CURVE('',#298,#306,#154,.T.);
#368=EDGE_CURVE('',#306,#306,#282,.T.);
#369=EDGE_CURVE('',#301,#307,#155,.T.);
#370=EDGE_CURVE('',#307,#307,#283,.T.);
#371=EDGE_CURVE('',#295,#308,#156,.T.);
#372=EDGE_CURVE('',#308,#308,#284,.T.);
#373=EDGE_CURVE('',#309,#309,#285,.T.);
#374=EDGE_CURVE('',#309,#310,#157,.T.);
#375=EDGE_CURVE('',#310,#310,#286,.T.);
#376=EDGE_CURVE('',#311,#311,#287,.T.);
#377=EDGE_CURVE('',#311,#312,#158,.T.);
#378=EDGE_CURVE('',#312,#312,#288,.T.);
#379=EDGE_CURVE('',#313,#313,#289,.T.);
#380=EDGE_CURVE('',#313,#314,#159,.T.);
#381=EDGE_CURVE('',#314,#314,#290,.T.);
#382=EDGE_CURVE('',#315,#315,#291,.T.);
#383=EDGE_CURVE('',#315,#316,#160,.T.);
#384=EDGE_CURVE('',#316,#316,#292,.T.);
#385=EDGE_CURVE('',#317,#318,#161,.T.);
#386=EDGE_CURVE('',#318,#319,#162,.T.);
#387=EDGE_CURVE('',#320,#319,#163,.T.);
#388=EDGE_CURVE('',#317,#320,#164,.T.);
#389=EDGE_CURVE('',#321,#317,#165,.T.);
#390=EDGE_CURVE('',#322,#320,#166,.T.);
#391=EDGE_CURVE('',#321,#322,#167,.T.);
#392=EDGE_CURVE('',#323,#321,#168,.T.);
#393=EDGE_CURVE('',#324,#322,#169,.T.);
#394=EDGE_CURVE('',#323,#324,#170,.T.);
#395=EDGE_CURVE('',#325,#323,#171,.T.);
#396=EDGE_CURVE('',#326,#324,#172,.T.);
#397=EDGE_CURVE('',#325,#326,#173,.T.);
#398=EDGE_CURVE('',#327,#325,#174,.T.);
#399=EDGE_CURVE('',#328,#326,#175,.T.);
#400=EDGE_CURVE('',#327,#328,#176,.T.);
#401=EDGE_CURVE('',#329,#327,#177,.T.);
#402=EDGE_CURVE('',#330,#328,#178,.T.);
#403=EDGE_CURVE('',#329,#330,#179,.T.);
#404=EDGE_CURVE('',#331,#329,#180,.T.);
#405=EDGE_CURVE('',#332,#330,#181,.T.);
#406=EDGE_CURVE('',#331,#332,#182,.T.);
#407=EDGE_CURVE('',#318,#331,#183,.T.);
#408=EDGE_CURVE('',#319,#332,#184,.T.);
#409=EDGE_CURVE('',#333,#334,#185,.T.);
#410=EDGE_CURVE('',#333,#335,#186,.T.);
#411=EDGE_CURVE('',#336,#335,#187,.T.);
#412=EDGE_CURVE('',#334,#336,#188,.T.);
#413=EDGE_CURVE('',#337,#334,#189,.T.);
#414=EDGE_CURVE('',#338,#336,#190,.T.);
#415=EDGE_CURVE('',#337,#338,#191,.T.);
#416=EDGE_CURVE('',#337,#339,#192,.T.);
#417=EDGE_CURVE('',#340,#338,#193,.T.);
#418=EDGE_CURVE('',#339,#340,#194,.T.);
#419=EDGE_CURVE('',#341,#339,#195,.T.);
#420=EDGE_CURVE('',#342,#340,#196,.T.);
#421=EDGE_CURVE('',#341,#342,#197,.T.);
#422=EDGE_CURVE('',#341,#343,#198,.T.);
#423=EDGE_CURVE('',#344,#342,#199,.T.);
#424=EDGE_CURVE('',#343,#344,#200,.T.);
#425=EDGE_CURVE('',#345,#343,#201,.T.);
#426=EDGE_CURVE('',#346,#344,#202,.T.);
#427=EDGE_CURVE('',#345,#346,#203,.T.);
#428=EDGE_CURVE('',#345,#347,#204,.T.);
#429=EDGE_CURVE('',#348,#346,#205,.T.);
#430=EDGE_CURVE('',#347,#348,#206,.T.);
#431=EDGE_CURVE('',#333,#347,#207,.T.);
#432=EDGE_CURVE('',#335,#348,#208,.T.);
#433=ORIENTED_EDGE('',*,*,#349,.F.);
#434=ORIENTED_EDGE('',*,*,#350,.T.);
#435=ORIENTED_EDGE('',*,*,#351,.T.);
#436=ORIENTED_EDGE('',*,*,#350,.F.);
#437=ORIENTED_EDGE('',*,*,#351,.F.);
#438=ORIENTED_EDGE('',*,*,#352,.F.);
#439=ORIENTED_EDGE('',*,*,#353,.F.);
#440=ORIENTED_EDGE('',*,*,#354,.T.);
#441=ORIENTED_EDGE('',*,*,#355,.T.);
#442=ORIENTED_EDGE('',*,*,#354,.F.);
#443=ORIENTED_EDGE('',*,*,#355,.F.);
#444=ORIENTED_EDGE('',*,*,#356,.F.);
#445=ORIENTED_EDGE('',*,*,#357,.F.);
#446=ORIENTED_EDGE('',*,*,#358,.T.);
#447=ORIENTED_EDGE('',*,*,#359,.T.);
#448=ORIENTED_EDGE('',*,*,#358,.F.);
#449=ORIENTED_EDGE('',*,*,#359,.F.);
#450=ORIENTED_EDGE('',*,*,#360,.F.);
#451=ORIENTED_EDGE('',*,*,#361,.F.);
#452=ORIENTED_EDGE('',*,*,#362,.T.);
#453=ORIENTED_EDGE('',*,*,#363,.T.);
#454=ORIENTED_EDGE('',*,*,#362,.F.);
#455=ORIENTED_EDGE('',*,*,#363,.F.);
#456=ORIENTED_EDGE('',*,*,#364,.F.);
#457=ORIENTED_EDGE('',*,*,#364,.T.);
#458=ORIENTED_EDGE('',*,*,#365,.T.);
#459=ORIENTED_EDGE('',*,*,#366,.F.);
#460=ORIENTED_EDGE('',*,*,#365,.F.);
#461=ORIENTED_EDGE('',*,*,#356,.T.);
#462=ORIENTED_EDGE('',*,*,#367,.T.);
#463=ORIENTED_EDGE('',*,*,#368,.F.);
#464=ORIENTED_EDGE('',*,*,#367,.F.);
#465=ORIENTED_EDGE('',*,*,#360,.T.);
#466=ORIENTED_EDGE('',*,*,#369,.T.);
#467=ORIENTED_EDGE('',*,*,#370,.F.);
#468=ORIENTED_EDGE('',*,*,#369,.F.);
#469=ORIENTED_EDGE('',*,*,#352,.T.);
#470=ORIENTED_EDGE('',*,*,#371,.T.);
#471=ORIENTED_EDGE('',*,*,#372,.F.);
#472=ORIENTED_EDGE('',*,*,#371,.F.);
#473=ORIENTED_EDGE('',*,*,#373,.F.);
#474=ORIENTED_EDGE('',*,*,#374,.T.);
#475=ORIENTED_EDGE('',*,*,#375,.F.);
#476=ORIENTED_EDGE('',*,*,#374,.F.);
#477=ORIENTED_EDGE('',*,*,#376,.F.);
#478=ORIENTED_EDGE('',*,*,#377,.T.);
#479=ORIENTED_EDGE('',*,*,#378,.F.);
#480=ORIENTED_EDGE('',*,*,#377,.F.);
#481=ORIENTED_EDGE('',*,*,#379,.F.);
#482=ORIENTED_EDGE('',*,*,#380,.T.);
#483=ORIENTED_EDGE('',*,*,#381,.F.);
#484=ORIENTED_EDGE('',*,*,#380,.F.);
#485=ORIENTED_EDGE('',*,*,#382,.F.);
#486=ORIENTED_EDGE('',*,*,#383,.T.);
#487=ORIENTED_EDGE('',*,*,#384,.F.);
#488=ORIENTED_EDGE('',*,*,#383,.F.);
#489=ORIENTED_EDGE('',*,*,#385,.T.);
#490=ORIENTED_EDGE('',*,*,#386,.T.);
#491=ORIENTED_EDGE('',*,*,#387,.F.);
#492=ORIENTED_EDGE('',*,*,#388,.F.);
#493=ORIENTED_EDGE('',*,*,#389,.T.);
#494=ORIENTED_EDGE('',*,*,#388,.T.);
#495=ORIENTED_EDGE('',*,*,#390,.F.);
#496=ORIENTED_EDGE('',*,*,#391,.F.);
#497=ORIENTED_EDGE('',*,*,#392,.T.);
#498=ORIENTED_EDGE('',*,*,#391,.T.);
#499=ORIENTED_EDGE('',*,*,#393,.F.);
#500=ORIENTED_EDGE('',*,*,#394,.F.);
#501=ORIENTED_EDGE('',*,*,#395,.T.);
#502=ORIENTED_EDGE('',*,*,#394,.T.);
#503=ORIENTED_EDGE('',*,*,#396,.F.);
#504=ORIENTED_EDGE('',*,*,#397,.F.);
#505=ORIENTED_EDGE('',*,*,#398,.T.);
#506=ORIENTED_EDGE('',*,*,#397,.T.);
#507=ORIENTED_EDGE('',*,*,#399,.F.);
#508=ORIENTED_EDGE('',*,*,#400,.F.);
#509=ORIENTED_EDGE('',*,*,#401,.T.);
#510=ORIENTED_EDGE('',*,*,#400,.T.);
#511=ORIENTED_EDGE('',*,*,#402,.F.);
#512=ORIENTED_EDGE('',*,*,#403,.F.);
#513=ORIENTED_EDGE('',*,*,#404,.T.);
#514=ORIENTED_EDGE('',*,*,#403,.T.);
#515=ORIENTED_EDGE('',*,*,#405,.F.);
#516=ORIENTED_EDGE('',*,*,#406,.F.);
#517=ORIENTED_EDGE('',*,*,#407,.T.);
#518=ORIENTED_EDGE('',*,*,#406,.T.);
#519=ORIENTED_EDGE('',*,*,#408,.F.);
#520=ORIENTED_EDGE('',*,*,#386,.F.);
#521=ORIENTED_EDGE('',*,*,#409,.F.);
#522=ORIENTED_EDGE('',*,*,#410,.T.);
#523=ORIENTED_EDGE('',*,*,#411,.F.);
#524=ORIENTED_EDGE('',*,*,#412,.F.);
#525=ORIENTED_EDGE('',*,*,#413,.T.);
#526=ORIENTED_EDGE('',*,*,#412,.T.);
#527=ORIENTED_EDGE('',*,*,#414,.F.);
#528=ORIENTED_EDGE('',*,*,#415,.F.);
#529=ORIENTED_EDGE('',*,*,#416,.F.);
#530=ORIENTED_EDGE('',*,*,#415,.T.);
#531=ORIENTED_EDGE('',*,*,#417,.F.);
#532=ORIENTED_EDGE('',*,*,#418,.F.);
#533=ORIENTED_EDGE('',*,*,#419,.T.);
#534=ORIENTED_EDGE('',*,*,#418,.T.);
#535=ORIENTED_EDGE('',*,*,#420,.F.);
#536=ORIENTED_EDGE('',*,*,#421,.F.);
#537=ORIENTED_EDGE('',*,*,#422,.F.);
#538=ORIENTED_EDGE('',*,*,#421,.T.);
#539=ORIENTED_EDGE('',*,*,#423,.F.);
#540=ORIENTED_EDGE('',*,*,#424,.F.);
#541=ORIENTED_EDGE('',*,*,#425,.T.);
#542=ORIENTED_EDGE('',*,*,#424,.T.);
#543=ORIENTED_EDGE('',*,*,#426,.F.);
#544=ORIENTED_EDGE('',*,*,#427,.F.);
#545=ORIENTED_EDGE('',*,*,#428,.F.);
#546=ORIENTED_EDGE('',*,*,#427,.T.);
#547=ORIENTED_EDGE('',*,*,#429,.F.);
#548=ORIENTED_EDGE('',*,*,#430,.F.);
#549=ORIENTED_EDGE('',*,*,#431,.T.);
#550=ORIENTED_EDGE('',*,*,#430,.T.);
#551=ORIENTED_EDGE('',*,*,#432,.F.);
#552=ORIENTED_EDGE('',*,*,#410,.F.);
#553=ORIENTED_EDGE('',*,*,#432,.T.);
#554=ORIENTED_EDGE('',*,*,#429,.T.);
#555=ORIENTED_EDGE('',*,*,#426,.T.);
#556=ORIENTED_EDGE('',*,*,#423,.T.);
#557=ORIENTED_EDGE('',*,*,#420,.T.);
#558=ORIENTED_EDGE('',*,*,#417,.T.);
#559=ORIENTED_EDGE('',*,*,#414,.T.);
#560=ORIENTED_EDGE('',*,*,#411,.T.);
#561=ORIENTED_EDGE('',*,*,#366,.T.);
#562=ORIENTED_EDGE('',*,*,#368,.T.);
#563=ORIENTED_EDGE('',*,*,#370,.T.);
#564=ORIENTED_EDGE('',*,*,#372,.T.);
#565=ORIENTED_EDGE('',*,*,#375,.T.);
#566=ORIENTED_EDGE('',*,*,#378,.T.);
#567=ORIENTED_EDGE('',*,*,#381,.T.);
#568=ORIENTED_EDGE('',*,*,#384,.T.);
#569=ORIENTED_EDGE('',*,*,#408,.T.);
#570=ORIENTED_EDGE('',*,*,#405,.T.);
#571=ORIENTED_EDGE('',*,*,#402,.T.);
#572=ORIENTED_EDGE('',*,*,#399,.T.);
#573=ORIENTED_EDGE('',*,*,#396,.T.);
#574=ORIENTED_EDGE('',*,*,#393,.T.);
#575=ORIENTED_EDGE('',*,*,#390,.T.);
#576=ORIENTED_EDGE('',*,*,#387,.T.);
#577=ORIENTED_EDGE('',*,*,#431,.F.);
#578=ORIENTED_EDGE('',*,*,#409,.T.);
#579=ORIENTED_EDGE('',*,*,#413,.F.);
#580=ORIENTED_EDGE('',*,*,#416,.T.);
#581=ORIENTED_EDGE('',*,*,#419,.F.);
#582=ORIENTED_EDGE('',*,*,#422,.T.);
#583=ORIENTED_EDGE('',*,*,#425,.F.);
#584=ORIENTED_EDGE('',*,*,#428,.T.);
#585=ORIENTED_EDGE('',*,*,#349,.T.);
#586=ORIENTED_EDGE('',*,*,#353,.T.);
#587=ORIENTED_EDGE('',*,*,#357,.T.);
#588=ORIENTED_EDGE('',*,*,#361,.T.);
#589=ORIENTED_EDGE('',*,*,#373,.T.);
#590=ORIENTED_EDGE('',*,*,#376,.T.);
#591=ORIENTED_EDGE('',*,*,#379,.T.);
#592=ORIENTED_EDGE('',*,*,#382,.T.);
#593=ORIENTED_EDGE('',*,*,#407,.F.);
#594=ORIENTED_EDGE('',*,*,#385,.F.);
#595=ORIENTED_EDGE('',*,*,#389,.F.);
#596=ORIENTED_EDGE('',*,*,#392,.F.);
#597=ORIENTED_EDGE('',*,*,#395,.F.);
#598=ORIENTED_EDGE('',*,*,#398,.F.);
#599=ORIENTED_EDGE('',*,*,#401,.F.);
#600=ORIENTED_EDGE('',*,*,#404,.F.);
#601=CYLINDRICAL_SURFACE('',#649,4.5);
#602=CYLINDRICAL_SURFACE('',#654,4.5);
#603=CYLINDRICAL_SURFACE('',#659,4.5);
#604=CYLINDRICAL_SURFACE('',#664,4.5);
#605=CYLINDRICAL_SURFACE('',#669,2.75);
#606=CYLINDRICAL_SURFACE('',#671,2.75);
#607=CYLINDRICAL_SURFACE('',#673,2.75);
#608=CYLINDRICAL_SURFACE('',#675,2.75);
#609=CYLINDRICAL_SURFACE('',#677,3.25);
#610=CYLINDRICAL_SURFACE('',#680,3.25);
#611=CYLINDRICAL_SURFACE('',#683,3.25000000000001);
#612=CYLINDRICAL_SURFACE('',#686,3.24999999999999);
#613=ADVANCED_FACE('',(#59),#601,.F.);
#614=ADVANCED_FACE('',(#60,#15),#37,.T.);
#615=ADVANCED_FACE('',(#61),#602,.F.);
#616=ADVANCED_FACE('',(#62,#16),#38,.T.);
#617=ADVANCED_FACE('',(#63),#603,.F.);
#618=ADVANCED_FACE('',(#64,#17),#39,.T.);
#619=ADVANCED_FACE('',(#65),#604,.F.);
#620=ADVANCED_FACE('',(#66,#18),#40,.T.);
#621=ADVANCED_FACE('',(#67),#605,.F.);
#622=ADVANCED_FACE('',(#68),#606,.F.);
#623=ADVANCED_FACE('',(#69),#607,.F.);
#624=ADVANCED_FACE('',(#70),#608,.F.);
#625=ADVANCED_FACE('',(#71),#609,.F.);
#626=ADVANCED_FACE('',(#72),#610,.F.);
#627=ADVANCED_FACE('',(#73),#611,.F.);
#628=ADVANCED_FACE('',(#74),#612,.F.);
#629=ADVANCED_FACE('',(#75),#41,.T.);
#630=ADVANCED_FACE('',(#76),#42,.T.);
#631=ADVANCED_FACE('',(#77),#43,.T.);
#632=ADVANCED_FACE('',(#78),#44,.T.);
#633=ADVANCED_FACE('',(#79),#45,.T.);
#634=ADVANCED_FACE('',(#80),#46,.T.);
#635=ADVANCED_FACE('',(#81),#47,.T.);
#636=ADVANCED_FACE('',(#82),#48,.T.);
#637=ADVANCED_FACE('',(#83),#49,.T.);
#638=ADVANCED_FACE('',(#84),#50,.T.);
#639=ADVANCED_FACE('',(#85),#51,.T.);
#640=ADVANCED_FACE('',(#86),#52,.T.);
#641=ADVANCED_FACE('',(#87),#53,.T.);
#642=ADVANCED_FACE('',(#88),#54,.T.);
#643=ADVANCED_FACE('',(#89),#55,.T.);
#644=ADVANCED_FACE('',(#90),#56,.T.);
#645=ADVANCED_FACE('',(#91,#19,#20,#21,#22,#23,#24,#25,#26,#27),#57,.T.);
#646=ADVANCED_FACE('',(#92,#28,#29,#30,#31,#32,#33,#34,#35,#36),#58,.F.);
#647=CLOSED_SHELL('',(#613,#614,#615,#616,#617,#618,#619,#620,#621,#622,
#623,#624,#625,#626,#627,#628,#629,#630,#631,#632,#633,#634,#635,#636,#637,
#638,#639,#640,#641,#642,#643,#644,#645,#646));
#648=AXIS2_PLACEMENT_3D('',#885,#707,#708);
#649=AXIS2_PLACEMENT_3D('',#886,#709,#710);
#650=AXIS2_PLACEMENT_3D('',#888,#711,#712);
#651=AXIS2_PLACEMENT_3D('',#891,#714,#715);
#652=AXIS2_PLACEMENT_3D('',#892,#716,#717);
#653=AXIS2_PLACEMENT_3D('',#894,#718,#719);
#654=AXIS2_PLACEMENT_3D('',#895,#720,#721);
#655=AXIS2_PLACEMENT_3D('',#897,#722,#723);
#656=AXIS2_PLACEMENT_3D('',#900,#725,#726);
#657=AXIS2_PLACEMENT_3D('',#901,#727,#728);
#658=AXIS2_PLACEMENT_3D('',#903,#729,#730);
#659=AXIS2_PLACEMENT_3D('',#904,#731,#732);
#660=AXIS2_PLACEMENT_3D('',#906,#733,#734);
#661=AXIS2_PLACEMENT_3D('',#909,#736,#737);
#662=AXIS2_PLACEMENT_3D('',#910,#738,#739);
#663=AXIS2_PLACEMENT_3D('',#912,#740,#741);
#664=AXIS2_PLACEMENT_3D('',#913,#742,#743);
#665=AXIS2_PLACEMENT_3D('',#915,#744,#745);
#666=AXIS2_PLACEMENT_3D('',#918,#747,#748);
#667=AXIS2_PLACEMENT_3D('',#919,#749,#750);
#668=AXIS2_PLACEMENT_3D('',#921,#751,#752);
#669=AXIS2_PLACEMENT_3D('',#922,#753,#754);
#670=AXIS2_PLACEMENT_3D('',#925,#756,#757);
#671=AXIS2_PLACEMENT_3D('',#926,#758,#759);
#672=AXIS2_PLACEMENT_3D('',#929,#761,#762);
#673=AXIS2_PLACEMENT_3D('',#930,#763,#764);
#674=AXIS2_PLACEMENT_3D('',#933,#766,#767);
#675=AXIS2_PLACEMENT_3D('',#934,#768,#769);
#676=AXIS2_PLACEMENT_3D('',#937,#771,#772);
#677=AXIS2_PLACEMENT_3D('',#938,#773,#774);
#678=AXIS2_PLACEMENT_3D('',#940,#775,#776);
#679=AXIS2_PLACEMENT_3D('',#943,#778,#779);
#680=AXIS2_PLACEMENT_3D('',#944,#780,#781);
#681=AXIS2_PLACEMENT_3D('',#946,#782,#783);
#682=AXIS2_PLACEMENT_3D('',#949,#785,#786);
#683=AXIS2_PLACEMENT_3D('',#950,#787,#788);
#684=AXIS2_PLACEMENT_3D('',#952,#789,#790);
#685=AXIS2_PLACEMENT_3D('',#955,#792,#793);
#686=AXIS2_PLACEMENT_3D('',#956,#794,#795);
#687=AXIS2_PLACEMENT_3D('',#958,#796,#797);
#688=AXIS2_PLACEMENT_3D('',#961,#799,#800);
#689=AXIS2_PLACEMENT_3D('',#962,#801,#802);
#690=AXIS2_PLACEMENT_3D('',#971,#807,#808);
#691=AXIS2_PLACEMENT_3D('',#977,#812,#813);
#692=AXIS2_PLACEMENT_3D('',#983,#817,#818);
#693=AXIS2_PLACEMENT_3D('',#989,#822,#823);
#694=AXIS2_PLACEMENT_3D('',#995,#827,#828);
#695=AXIS2_PLACEMENT_3D('',#1001,#832,#833);
#696=AXIS2_PLACEMENT_3D('',#1007,#837,#838);
#697=AXIS2_PLACEMENT_3D('',#1010,#841,#842);
#698=AXIS2_PLACEMENT_3D('',#1019,#847,#848);
#699=AXIS2_PLACEMENT_3D('',#1025,#852,#853);
#700=AXIS2_PLACEMENT_3D('',#1031,#857,#858);
#701=AXIS2_PLACEMENT_3D('',#1037,#862,#863);
#702=AXIS2_PLACEMENT_3D('',#1043,#867,#868);
#703=AXIS2_PLACEMENT_3D('',#1049,#872,#873);
#704=AXIS2_PLACEMENT_3D('',#1055,#877,#878);
#705=AXIS2_PLACEMENT_3D('',#1058,#881,#882);
#706=AXIS2_PLACEMENT_3D('',#1059,#883,#884);
#707=DIRECTION('axis',(0.,0.,1.));
#708=DIRECTION('refdir',(1.,0.,0.));
#709=DIRECTION('center_axis',(1.64947420801452E-14,-1.,0.));
#710=DIRECTION('ref_axis',(-1.,-1.64947420801452E-14,0.));
#711=DIRECTION('center_axis',(1.66117120059539E-14,-1.,-1.38777878078135E-17));
#712=DIRECTION('ref_axis',(-1.,-1.64947420801452E-14,0.));
#713=DIRECTION('',(1.64947420801452E-14,-1.,0.));
#714=DIRECTION('center_axis',(1.66117120059539E-14,-1.,-1.38777878078135E-17));
#715=DIRECTION('ref_axis',(-1.,-1.66117120059539E-14,0.));
#716=DIRECTION('center_axis',(-1.66117120059539E-14,1.,1.38777878078135E-17));
#717=DIRECTION('ref_axis',(-1.,-1.66117120059539E-14,0.));
#718=DIRECTION('center_axis',(-1.66117120059539E-14,1.,1.38777878078135E-17));
#719=DIRECTION('ref_axis',(-1.,-1.66533453693773E-14,0.));
#720=DIRECTION('center_axis',(1.64947420801452E-14,-1.,0.));
#721=DIRECTION('ref_axis',(-1.,-1.64947420801452E-14,0.));
#722=DIRECTION('center_axis',(1.66117120059539E-14,-1.,-1.38777878078135E-17));
#723=DIRECTION('ref_axis',(-1.,-1.64947420801452E-14,0.));
#724=DIRECTION('',(1.64947420801452E-14,-1.,0.));
#725=DIRECTION('center_axis',(1.66117120059539E-14,-1.,-1.38777878078135E-17));
#726=DIRECTION('ref_axis',(-1.,-1.66117120059539E-14,0.));
#727=DIRECTION('center_axis',(-1.66117120059539E-14,1.,1.38777878078135E-17));
#728=DIRECTION('ref_axis',(-1.,-1.66117120059539E-14,0.));
#729=DIRECTION('center_axis',(-1.66117120059539E-14,1.,1.38777878078135E-17));
#730=DIRECTION('ref_axis',(-1.,-1.66533453693773E-14,0.));
#731=DIRECTION('center_axis',(1.64947420801452E-14,-1.,0.));
#732=DIRECTION('ref_axis',(-1.,-1.64947420801452E-14,0.));
#733=DIRECTION('center_axis',(1.66117120059539E-14,-1.,-1.38777878078135E-17));
#734=DIRECTION('ref_axis',(-1.,-1.64947420801452E-14,0.));
#735=DIRECTION('',(1.64947420801452E-14,-1.,0.));
#736=DIRECTION('center_axis',(1.66117120059539E-14,-1.,-1.38777878078135E-17));
#737=DIRECTION('ref_axis',(-1.,-1.66117120059539E-14,0.));
#738=DIRECTION('center_axis',(-1.66117120059539E-14,1.,1.38777878078135E-17));
#739=DIRECTION('ref_axis',(-1.,-1.66117120059539E-14,0.));
#740=DIRECTION('center_axis',(-1.66117120059539E-14,1.,1.38777878078135E-17));
#741=DIRECTION('ref_axis',(-1.,-1.66533453693774E-14,0.));
#742=DIRECTION('center_axis',(1.64947420801452E-14,-1.,0.));
#743=DIRECTION('ref_axis',(-1.,-1.64947420801452E-14,0.));
#744=DIRECTION('center_axis',(1.66117120059539E-14,-1.,-1.38777878078135E-17));
#745=DIRECTION('ref_axis',(-1.,-1.64947420801452E-14,0.));
#746=DIRECTION('',(1.64947420801452E-14,-1.,0.));
#747=DIRECTION('center_axis',(1.66117120059539E-14,-1.,-1.38777878078135E-17));
#748=DIRECTION('ref_axis',(-1.,-1.66117120059539E-14,0.));
#749=DIRECTION('center_axis',(-1.66117120059539E-14,1.,1.38777878078135E-17));
#750=DIRECTION('ref_axis',(-1.,-1.66117120059539E-14,0.));
#751=DIRECTION('center_axis',(-1.66117120059539E-14,1.,1.38777878078135E-17));
#752=DIRECTION('ref_axis',(-1.,-1.66533453693774E-14,0.));
#753=DIRECTION('center_axis',(1.66533453693774E-14,-1.,0.));
#754=DIRECTION('ref_axis',(-1.,-1.66533453693774E-14,0.));
#755=DIRECTION('',(1.66533453693774E-14,-1.,0.));
#756=DIRECTION('center_axis',(-1.6579330501069E-14,1.,0.));
#757=DIRECTION('ref_axis',(-1.,-1.66533453693774E-14,0.));
#758=DIRECTION('center_axis',(1.66533453693773E-14,-1.,0.));
#759=DIRECTION('ref_axis',(-1.,-1.66533453693773E-14,0.));
#760=DIRECTION('',(1.66533453693773E-14,-1.,0.));
#761=DIRECTION('center_axis',(-1.6579330501069E-14,1.,0.));
#762=DIRECTION('ref_axis',(-1.,-1.66533453693773E-14,0.));
#763=DIRECTION('center_axis',(1.66533453693774E-14,-1.,0.));
#764=DIRECTION('ref_axis',(-1.,-1.66533453693774E-14,0.));
#765=DIRECTION('',(1.66533453693774E-14,-1.,0.));
#766=DIRECTION('center_axis',(-1.6579330501069E-14,1.,0.));
#767=DIRECTION('ref_axis',(-1.,-1.66533453693774E-14,0.));
#768=DIRECTION('center_axis',(1.66533453693773E-14,-1.,0.));
#769=DIRECTION('ref_axis',(-1.,-1.66533453693773E-14,0.));
#770=DIRECTION('',(1.66533453693773E-14,-1.,0.));
#771=DIRECTION('center_axis',(-1.6579330501069E-14,1.,0.));
#772=DIRECTION('ref_axis',(-1.,-1.66533453693773E-14,0.));
#773=DIRECTION('center_axis',(1.6579330501069E-14,-1.,0.));
#774=DIRECTION('ref_axis',(1.,1.6579330501069E-14,3.36850592385751E-47));
#775=DIRECTION('center_axis',(1.66117120059539E-14,-1.,-1.38777878078135E-17));
#776=DIRECTION('ref_axis',(1.,1.6579330501069E-14,3.36850592385751E-47));
#777=DIRECTION('',(1.6579330501069E-14,-1.,0.));
#778=DIRECTION('center_axis',(-1.6579330501069E-14,1.,0.));
#779=DIRECTION('ref_axis',(1.,1.6579330501069E-14,3.36850592385751E-47));
#780=DIRECTION('center_axis',(1.6579330501069E-14,-1.,0.));
#781=DIRECTION('ref_axis',(1.,1.6579330501069E-14,3.36850592385751E-47));
#782=DIRECTION('center_axis',(1.66117120059539E-14,-1.,-1.38777878078135E-17));
#783=DIRECTION('ref_axis',(1.,1.6579330501069E-14,3.36850592385751E-47));
#784=DIRECTION('',(1.6579330501069E-14,-1.,0.));
#785=DIRECTION('center_axis',(-1.6579330501069E-14,1.,0.));
#786=DIRECTION('ref_axis',(1.,1.6579330501069E-14,3.36850592385751E-47));
#787=DIRECTION('center_axis',(1.6579330501069E-14,-1.,0.));
#788=DIRECTION('ref_axis',(1.,1.6579330501069E-14,3.3685059238575E-47));
#789=DIRECTION('center_axis',(1.66117120059539E-14,-1.,-1.38777878078135E-17));
#790=DIRECTION('ref_axis',(1.,1.6579330501069E-14,3.3685059238575E-47));
#791=DIRECTION('',(1.6579330501069E-14,-1.,0.));
#792=DIRECTION('center_axis',(-1.6579330501069E-14,1.,0.));
#793=DIRECTION('ref_axis',(1.,1.6579330501069E-14,3.3685059238575E-47));
#794=DIRECTION('center_axis',(1.6579330501069E-14,-1.,0.));
#795=DIRECTION('ref_axis',(1.,1.6579330501069E-14,3.36850592385752E-47));
#796=DIRECTION('center_axis',(1.66117120059539E-14,-1.,-1.38777878078135E-17));
#797=DIRECTION('ref_axis',(1.,1.6579330501069E-14,3.36850592385752E-47));
#798=DIRECTION('',(1.6579330501069E-14,-1.,0.));
#799=DIRECTION('center_axis',(-1.6579330501069E-14,1.,0.));
#800=DIRECTION('ref_axis',(1.,1.6579330501069E-14,3.36850592385752E-47));
#801=DIRECTION('center_axis',(-2.08256596584845E-16,-3.45275494380795E-30,
1.));
#802=DIRECTION('ref_axis',(-1.,-1.66117120059539E-14,-2.08256596584845E-16));
#803=DIRECTION('',(-1.,-1.66117120059539E-14,-2.08256596584845E-16));
#804=DIRECTION('',(1.6579330501069E-14,-1.,0.));
#805=DIRECTION('',(-1.,-1.66117120059539E-14,-2.08256596584845E-16));
#806=DIRECTION('',(1.6579330501069E-14,-1.,0.));
#807=DIRECTION('center_axis',(-0.707106781186555,-1.1723357024839E-14,0.70710678118654));
#808=DIRECTION('ref_axis',(-0.70710678118654,-1.17364411286611E-14,-0.707106781186555));
#809=DIRECTION('',(-0.70710678118654,-1.17364411286611E-14,-0.707106781186555));
#810=DIRECTION('',(-0.70710678118654,-1.17364411286611E-14,-0.707106781186555));
#811=DIRECTION('',(1.6579330501069E-14,-1.,0.));
#812=DIRECTION('center_axis',(-1.,-1.6579330501069E-14,6.43043189638282E-16));
#813=DIRECTION('ref_axis',(-6.43043189638282E-16,1.38777878078029E-17,-1.));
#814=DIRECTION('',(-6.43043189638282E-16,1.38777878078029E-17,-1.));
#815=DIRECTION('',(-6.43043189638282E-16,1.38777878078029E-17,-1.));
#816=DIRECTION('',(1.6579330501069E-14,-1.,0.));
#817=DIRECTION('center_axis',(-0.70710678118655,-1.17233570248389E-14,-0.707106781186545));
#818=DIRECTION('ref_axis',(0.707106781186545,1.17560672843947E-14,-0.70710678118655));
#819=DIRECTION('',(0.707106781186545,1.17560672843947E-14,-0.70710678118655));
#820=DIRECTION('',(0.707106781186545,1.17560672843947E-14,-0.70710678118655));
#821=DIRECTION('',(1.6579330501069E-14,-1.,0.));
#822=DIRECTION('center_axis',(2.08256596584845E-16,3.45275494380795E-30,
-1.));
#823=DIRECTION('ref_axis',(1.,1.66117120059539E-14,2.08256596584845E-16));
#824=DIRECTION('',(1.,1.66117120059539E-14,2.08256596584845E-16));
#825=DIRECTION('',(1.,1.66117120059539E-14,2.08256596584845E-16));
#826=DIRECTION('',(1.6579330501069E-14,-1.,0.));
#827=DIRECTION('center_axis',(0.707106781186546,1.17233570248388E-14,-0.707106781186549));
#828=DIRECTION('ref_axis',(0.707106781186549,1.17364411286613E-14,0.707106781186546));
#829=DIRECTION('',(0.707106781186549,1.17364411286613E-14,0.707106781186546));
#830=DIRECTION('',(0.707106781186549,1.17364411286613E-14,0.707106781186546));
#831=DIRECTION('',(1.6579330501069E-14,-1.,0.));
#832=DIRECTION('center_axis',(1.,1.6579330501069E-14,-4.49383653690559E-34));
#833=DIRECTION('ref_axis',(2.30533814343137E-31,-1.38777878078135E-17,1.));
#834=DIRECTION('',(2.30533814343137E-31,-1.38777878078135E-17,1.));
#835=DIRECTION('',(2.30533814343137E-31,-1.38777878078135E-17,1.));
#836=DIRECTION('',(1.6579330501069E-14,-1.,0.));
#837=DIRECTION('center_axis',(0.707106781186548,1.17233570248389E-14,0.707106781186548));
#838=DIRECTION('ref_axis',(-0.707106781186548,-1.17560672843948E-14,0.707106781186548));
#839=DIRECTION('',(-0.707106781186548,-1.17560672843948E-14,0.707106781186548));
#840=DIRECTION('',(-0.707106781186548,-1.17560672843948E-14,0.707106781186548));
#841=DIRECTION('center_axis',(0.707106781186555,1.1723357024839E-14,-0.70710678118654));
#842=DIRECTION('ref_axis',(0.70710678118654,1.17364411286611E-14,0.707106781186555));
#843=DIRECTION('',(-0.70710678118654,-1.17364411286611E-14,-0.707106781186555));
#844=DIRECTION('',(1.6579330501069E-14,-1.,0.));
#845=DIRECTION('',(0.70710678118654,1.17364411286611E-14,0.707106781186555));
#846=DIRECTION('',(1.6579330501069E-14,-1.,0.));
#847=DIRECTION('center_axis',(0.,0.,-1.));
#848=DIRECTION('ref_axis',(1.,1.66117120059539E-14,0.));
#849=DIRECTION('',(1.,1.66117120059539E-14,0.));
#850=DIRECTION('',(1.,1.66117120059539E-14,0.));
#851=DIRECTION('',(1.6579330501069E-14,-1.,0.));
#852=DIRECTION('center_axis',(-0.707106781186549,-1.17233570248389E-14,
-0.707106781186546));
#853=DIRECTION('ref_axis',(0.707106781186546,1.17560672843948E-14,-0.707106781186549));
#854=DIRECTION('',(-0.707106781186546,-1.17560672843948E-14,0.707106781186549));
#855=DIRECTION('',(0.707106781186546,1.17560672843948E-14,-0.707106781186549));
#856=DIRECTION('',(1.6579330501069E-14,-1.,0.));
#857=DIRECTION('center_axis',(-1.,-1.6579330501069E-14,-4.53152254949043E-17));
#858=DIRECTION('ref_axis',(4.53152254949041E-17,1.38777878078143E-17,-1.));
#859=DIRECTION('',(4.53152254949041E-17,1.38777878078143E-17,-1.));
#860=DIRECTION('',(4.53152254949041E-17,1.38777878078143E-17,-1.));
#861=DIRECTION('',(1.6579330501069E-14,-1.,0.));
#862=DIRECTION('center_axis',(-0.707106781186548,-1.17233570248389E-14,
0.707106781186548));
#863=DIRECTION('ref_axis',(-0.707106781186548,-1.17364411286612E-14,-0.707106781186548));
#864=DIRECTION('',(0.707106781186548,1.17364411286612E-14,0.707106781186548));
#865=DIRECTION('',(-0.707106781186548,-1.17364411286612E-14,-0.707106781186548));
#866=DIRECTION('',(1.6579330501069E-14,-1.,0.));
#867=DIRECTION('center_axis',(0.,0.,1.));
#868=DIRECTION('ref_axis',(-1.,-1.66117120059539E-14,0.));
#869=DIRECTION('',(-1.,-1.66117120059539E-14,0.));
#870=DIRECTION('',(-1.,-1.66117120059539E-14,0.));
#871=DIRECTION('',(1.6579330501069E-14,-1.,0.));
#872=DIRECTION('center_axis',(0.707106781186548,1.17233570248389E-14,0.707106781186548));
#873=DIRECTION('ref_axis',(-0.707106781186548,-1.17560672843948E-14,0.707106781186548));
#874=DIRECTION('',(0.707106781186548,1.17560672843948E-14,-0.707106781186548));
#875=DIRECTION('',(-0.707106781186548,-1.17560672843948E-14,0.707106781186548));
#876=DIRECTION('',(1.6579330501069E-14,-1.,0.));
#877=DIRECTION('center_axis',(1.,1.6579330501069E-14,4.53152254949044E-17));
#878=DIRECTION('ref_axis',(-4.53152254949041E-17,-1.38777878078143E-17,
1.));
#879=DIRECTION('',(-4.53152254949041E-17,-1.38777878078143E-17,1.));
#880=DIRECTION('',(-4.53152254949041E-17,-1.38777878078143E-17,1.));
#881=DIRECTION('center_axis',(1.6579330501069E-14,-1.,0.));
#882=DIRECTION('ref_axis',(0.,0.,-1.));
#883=DIRECTION('center_axis',(1.66117120059539E-14,-1.,-1.38777878078135E-17));
#884=DIRECTION('ref_axis',(1.,1.66117120059539E-14,0.));
#885=CARTESIAN_POINT('',(0.,0.,0.));
#886=CARTESIAN_POINT('Origin',(35.7051197838486,-144.35433362286,45.3804079579871));
#887=CARTESIAN_POINT('',(40.2051197838486,-144.354333622859,45.3804079579871));
#888=CARTESIAN_POINT('Origin',(35.7051197838486,-144.354333622859,45.3804079579871));
#889=CARTESIAN_POINT('',(40.2051197838488,-151.35433362286,45.3804079579871));
#890=CARTESIAN_POINT('',(40.2051197838486,-144.35433362286,45.3804079579871));
#891=CARTESIAN_POINT('Origin',(35.7051197838488,-151.35433362286,45.3804079579871));
#892=CARTESIAN_POINT('Origin',(-4.29488021615124,-151.35433362286,-4.61959204201291));
#893=CARTESIAN_POINT('',(38.4551197838488,-151.354333622859,45.3804079579871));
#894=CARTESIAN_POINT('Origin',(35.7051197838488,-151.354333622859,45.3804079579871));
#895=CARTESIAN_POINT('Origin',(-44.2948802161514,-144.35433362286,-54.6195920420129));
#896=CARTESIAN_POINT('',(-39.7948802161514,-144.35433362286,-54.6195920420129));
#897=CARTESIAN_POINT('Origin',(-44.2948802161514,-144.354333622861,-54.6195920420129));
#898=CARTESIAN_POINT('',(-39.7948802161512,-151.35433362286,-54.6195920420129));
#899=CARTESIAN_POINT('',(-39.7948802161514,-144.35433362286,-54.6195920420129));
#900=CARTESIAN_POINT('Origin',(-44.2948802161512,-151.35433362286,-54.6195920420129));
#901=CARTESIAN_POINT('Origin',(-4.29488021615124,-151.35433362286,-4.61959204201291));
#902=CARTESIAN_POINT('',(-41.5448802161512,-151.35433362286,-54.6195920420129));
#903=CARTESIAN_POINT('Origin',(-44.2948802161512,-151.354333622861,-54.6195920420129));
#904=CARTESIAN_POINT('Origin',(35.7051197838486,-144.354333622858,-54.6195920420129));
#905=CARTESIAN_POINT('',(40.2051197838486,-144.354333622859,-54.6195920420129));
#906=CARTESIAN_POINT('Origin',(35.7051197838486,-144.354333622859,-54.6195920420129));
#907=CARTESIAN_POINT('',(40.2051197838488,-151.354333622858,-54.6195920420129));
#908=CARTESIAN_POINT('',(40.2051197838486,-144.354333622858,-54.6195920420129));
#909=CARTESIAN_POINT('Origin',(35.7051197838488,-151.354333622858,-54.6195920420129));
#910=CARTESIAN_POINT('Origin',(-4.29488021615124,-151.35433362286,-4.61959204201291));
#911=CARTESIAN_POINT('',(38.4551197838488,-151.354333622859,-54.6195920420129));
#912=CARTESIAN_POINT('Origin',(35.7051197838488,-151.354333622859,-54.6195920420129));
#913=CARTESIAN_POINT('Origin',(-44.2948802161514,-144.35433362286,45.3804079579871));
#914=CARTESIAN_POINT('',(-39.7948802161514,-144.354333622861,45.3804079579871));
#915=CARTESIAN_POINT('Origin',(-44.2948802161514,-144.354333622861,45.3804079579871));
#916=CARTESIAN_POINT('',(-39.7948802161512,-151.35433362286,45.3804079579871));
#917=CARTESIAN_POINT('',(-39.7948802161514,-144.35433362286,45.3804079579871));
#918=CARTESIAN_POINT('Origin',(-44.2948802161512,-151.35433362286,45.3804079579871));
#919=CARTESIAN_POINT('Origin',(-4.29488021615124,-151.35433362286,-4.61959204201291));
#920=CARTESIAN_POINT('',(-41.5448802161512,-151.354333622861,45.3804079579871));
#921=CARTESIAN_POINT('Origin',(-44.2948802161512,-151.354333622861,45.3804079579871));
#922=CARTESIAN_POINT('Origin',(-44.2948802161514,-144.35433362286,45.3804079579871));
#923=CARTESIAN_POINT('',(-41.5448802161511,-159.354333622861,45.3804079579871));
#924=CARTESIAN_POINT('',(-41.5448802161514,-144.35433362286,45.3804079579871));
#925=CARTESIAN_POINT('Origin',(-44.2948802161511,-159.354333622861,45.3804079579871));
#926=CARTESIAN_POINT('Origin',(-44.2948802161514,-144.35433362286,-54.6195920420129));
#927=CARTESIAN_POINT('',(-41.5448802161511,-159.354333622861,-54.6195920420129));
#928=CARTESIAN_POINT('',(-41.5448802161514,-144.35433362286,-54.6195920420129));
#929=CARTESIAN_POINT('Origin',(-44.2948802161511,-159.354333622861,-54.6195920420129));
#930=CARTESIAN_POINT('Origin',(35.7051197838486,-144.354333622858,-54.6195920420129));
#931=CARTESIAN_POINT('',(38.4551197838489,-159.354333622859,-54.6195920420129));
#932=CARTESIAN_POINT('',(38.4551197838486,-144.354333622858,-54.6195920420129));
#933=CARTESIAN_POINT('Origin',(35.7051197838489,-159.354333622859,-54.6195920420129));
#934=CARTESIAN_POINT('Origin',(35.7051197838486,-144.35433362286,45.3804079579871));
#935=CARTESIAN_POINT('',(38.4551197838489,-159.354333622859,45.3804079579871));
#936=CARTESIAN_POINT('',(38.4551197838486,-144.35433362286,45.3804079579871));
#937=CARTESIAN_POINT('Origin',(35.7051197838489,-159.354333622859,45.3804079579871));
#938=CARTESIAN_POINT('Origin',(-54.2948802161515,-144.354333622861,82.880406393365));
#939=CARTESIAN_POINT('',(-57.5448802161515,-144.354333622861,82.880406393365));
#940=CARTESIAN_POINT('Origin',(-54.2948802161515,-144.354333622861,82.880406393365));
#941=CARTESIAN_POINT('',(-57.5448802161512,-159.354333622861,82.880406393365));
#942=CARTESIAN_POINT('',(-57.5448802161515,-144.354333622861,82.880406393365));
#943=CARTESIAN_POINT('Origin',(-54.2948802161512,-159.354333622861,82.880406393365));
#944=CARTESIAN_POINT('Origin',(-54.2948802161515,-144.354333622861,-92.119593606635));
#945=CARTESIAN_POINT('',(-57.5448802161515,-144.354333622861,-92.119593606635));
#946=CARTESIAN_POINT('Origin',(-54.2948802161515,-144.354333622861,-92.119593606635));
#947=CARTESIAN_POINT('',(-57.5448802161512,-159.354333622861,-92.119593606635));
#948=CARTESIAN_POINT('',(-57.5448802161515,-144.354333622861,-92.119593606635));
#949=CARTESIAN_POINT('Origin',(-54.2948802161512,-159.354333622861,-92.119593606635));
#950=CARTESIAN_POINT('Origin',(45.7051197838485,-144.354333622859,82.880406393365));
#951=CARTESIAN_POINT('',(42.4551197838485,-144.354333622859,82.880406393365));
#952=CARTESIAN_POINT('Origin',(45.7051197838485,-144.354333622859,82.880406393365));
#953=CARTESIAN_POINT('',(42.4551197838488,-159.354333622859,82.880406393365));
#954=CARTESIAN_POINT('',(42.4551197838485,-144.354333622859,82.880406393365));
#955=CARTESIAN_POINT('Origin',(45.7051197838488,-159.354333622859,82.880406393365));
#956=CARTESIAN_POINT('Origin',(45.7051197838486,-144.354333622859,-92.119593606635));
#957=CARTESIAN_POINT('',(42.4551197838486,-144.354333622859,-92.119593606635));
#958=CARTESIAN_POINT('Origin',(45.7051197838486,-144.354333622859,-92.119593606635));
#959=CARTESIAN_POINT('',(42.4551197838488,-159.354333622859,-92.119593606635));
#960=CARTESIAN_POINT('',(42.4551197838486,-144.354333622859,-92.119593606635));
#961=CARTESIAN_POINT('Origin',(45.7051197838488,-159.354333622859,-92.119593606635));
#962=CARTESIAN_POINT('Origin',(13.8308586120195,-144.35433362286,-53.3500625176267));
#963=CARTESIAN_POINT('',(13.8308586120195,-144.35433362286,-53.3500625176267));
#964=CARTESIAN_POINT('',(-28.8174144446409,-144.35433362286,-53.3500625176267));
#965=CARTESIAN_POINT('',(13.8308586120195,-144.35433362286,-53.3500625176267));
#966=CARTESIAN_POINT('',(-28.8174144446407,-159.35433362286,-53.3500625176267));
#967=CARTESIAN_POINT('',(-28.8174144446409,-144.35433362286,-53.3500625176267));
#968=CARTESIAN_POINT('',(13.8308586120197,-159.35433362286,-53.3500625176267));
#969=CARTESIAN_POINT('',(13.8308586120197,-159.35433362286,-53.3500625176267));
#970=CARTESIAN_POINT('',(13.8308586120195,-144.35433362286,-53.3500625176267));
#971=CARTESIAN_POINT('Origin',(15.8308586120194,-144.35433362286,-51.3500625176267));
#972=CARTESIAN_POINT('',(15.8308586120194,-144.35433362286,-51.3500625176267));
#973=CARTESIAN_POINT('',(15.8308586120194,-144.35433362286,-51.3500625176267));
#974=CARTESIAN_POINT('',(15.8308586120197,-159.35433362286,-51.3500625176267));
#975=CARTESIAN_POINT('',(15.8308586120197,-159.35433362286,-51.3500625176267));
#976=CARTESIAN_POINT('',(15.8308586120194,-144.35433362286,-51.3500625176267));
#977=CARTESIAN_POINT('Origin',(15.8308586120195,-144.35433362286,45.3347175730875));
#978=CARTESIAN_POINT('',(15.8308586120195,-144.35433362286,45.3347175730875));
#979=CARTESIAN_POINT('',(15.8308586120195,-144.35433362286,45.3347175730875));
#980=CARTESIAN_POINT('',(15.8308586120197,-159.35433362286,45.3347175730875));
#981=CARTESIAN_POINT('',(15.8308586120197,-159.35433362286,45.3347175730875));
#982=CARTESIAN_POINT('',(15.8308586120195,-144.35433362286,45.3347175730875));
#983=CARTESIAN_POINT('Origin',(13.8308586120195,-144.35433362286,47.3347175730875));
#984=CARTESIAN_POINT('',(13.8308586120195,-144.35433362286,47.3347175730875));
#985=CARTESIAN_POINT('',(13.8308586120195,-144.35433362286,47.3347175730875));
#986=CARTESIAN_POINT('',(13.8308586120197,-159.35433362286,47.3347175730875));
#987=CARTESIAN_POINT('',(13.8308586120198,-159.35433362286,47.3347175730875));
#988=CARTESIAN_POINT('',(13.8308586120195,-144.35433362286,47.3347175730875));
#989=CARTESIAN_POINT('Origin',(-28.8174144446409,-144.35433362286,47.3347175730875));
#990=CARTESIAN_POINT('',(-28.8174144446409,-144.35433362286,47.3347175730875));
#991=CARTESIAN_POINT('',(-28.8174144446409,-144.35433362286,47.3347175730875));
#992=CARTESIAN_POINT('',(-28.8174144446407,-159.35433362286,47.3347175730875));
#993=CARTESIAN_POINT('',(-28.8174144446407,-159.35433362286,47.3347175730875));
#994=CARTESIAN_POINT('',(-28.8174144446409,-144.35433362286,47.3347175730875));
#995=CARTESIAN_POINT('Origin',(-30.8174144446409,-144.35433362286,45.3347175730875));
#996=CARTESIAN_POINT('',(-30.8174144446409,-144.35433362286,45.3347175730875));
#997=CARTESIAN_POINT('',(-30.8174144446409,-144.35433362286,45.3347175730875));
#998=CARTESIAN_POINT('',(-30.8174144446407,-159.35433362286,45.3347175730875));
#999=CARTESIAN_POINT('',(-30.8174144446407,-159.35433362286,45.3347175730875));
#1000=CARTESIAN_POINT('',(-30.8174144446409,-144.35433362286,45.3347175730875));
#1001=CARTESIAN_POINT('Origin',(-30.8174144446409,-144.35433362286,-51.3500625176267));
#1002=CARTESIAN_POINT('',(-30.8174144446409,-144.35433362286,-51.3500625176267));
#1003=CARTESIAN_POINT('',(-30.8174144446409,-144.35433362286,-51.3500625176267));
#1004=CARTESIAN_POINT('',(-30.8174144446407,-159.35433362286,-51.3500625176267));
#1005=CARTESIAN_POINT('',(-30.8174144446407,-159.35433362286,-51.3500625176267));
#1006=CARTESIAN_POINT('',(-30.8174144446409,-144.35433362286,-51.3500625176267));
#1007=CARTESIAN_POINT('Origin',(-28.8174144446409,-144.35433362286,-53.3500625176267));
#1008=CARTESIAN_POINT('',(-28.8174144446409,-144.35433362286,-53.3500625176267));
#1009=CARTESIAN_POINT('',(-28.8174144446407,-159.35433362286,-53.3500625176267));
#1010=CARTESIAN_POINT('Origin',(58.7051197838486,-144.354333622859,-104.619592042013));
#1011=CARTESIAN_POINT('',(60.7051197838485,-144.354333622859,-102.619592042013));
#1012=CARTESIAN_POINT('',(58.7051197838486,-144.354333622859,-104.619592042013));
#1013=CARTESIAN_POINT('',(60.7051197838485,-144.354333622859,-102.619592042013));
#1014=CARTESIAN_POINT('',(60.7051197838488,-159.354333622859,-102.619592042013));
#1015=CARTESIAN_POINT('',(60.7051197838485,-144.354333622859,-102.619592042013));
#1016=CARTESIAN_POINT('',(58.7051197838488,-159.354333622859,-104.619592042013));
#1017=CARTESIAN_POINT('',(60.7051197838488,-159.354333622859,-102.619592042013));
#1018=CARTESIAN_POINT('',(58.7051197838486,-144.354333622859,-104.619592042013));
#1019=CARTESIAN_POINT('Origin',(-67.2948802161513,-144.354333622861,-104.619592042013));
#1020=CARTESIAN_POINT('',(-67.2948802161513,-144.354333622861,-104.619592042013));
#1021=CARTESIAN_POINT('',(-67.2948802161513,-144.354333622861,-104.619592042013));
#1022=CARTESIAN_POINT('',(-67.294880216151,-159.354333622861,-104.619592042013));
#1023=CARTESIAN_POINT('',(-67.294880216151,-159.354333622861,-104.619592042013));
#1024=CARTESIAN_POINT('',(-67.2948802161513,-144.354333622861,-104.619592042013));
#1025=CARTESIAN_POINT('Origin',(-69.2948802161513,-144.354333622861,-102.619592042013));
#1026=CARTESIAN_POINT('',(-69.2948802161513,-144.354333622861,-102.619592042013));
#1027=CARTESIAN_POINT('',(-67.2948802161513,-144.354333622861,-104.619592042013));
#1028=CARTESIAN_POINT('',(-69.294880216151,-159.354333622861,-102.619592042013));
#1029=CARTESIAN_POINT('',(-67.294880216151,-159.354333622861,-104.619592042013));
#1030=CARTESIAN_POINT('',(-69.2948802161513,-144.354333622861,-102.619592042013));
#1031=CARTESIAN_POINT('Origin',(-69.2948802161513,-144.354333622861,93.3804079579871));
#1032=CARTESIAN_POINT('',(-69.2948802161513,-144.354333622861,93.3804079579871));
#1033=CARTESIAN_POINT('',(-69.2948802161513,-144.354333622861,93.3804079579871));
#1034=CARTESIAN_POINT('',(-69.294880216151,-159.354333622861,93.3804079579871));
#1035=CARTESIAN_POINT('',(-69.294880216151,-159.354333622861,93.3804079579871));
#1036=CARTESIAN_POINT('',(-69.2948802161513,-144.354333622861,93.3804079579871));
#1037=CARTESIAN_POINT('Origin',(-67.2948802161513,-144.354333622861,95.3804079579871));
#1038=CARTESIAN_POINT('',(-67.2948802161513,-144.354333622861,95.3804079579871));
#1039=CARTESIAN_POINT('',(-69.2948802161513,-144.354333622861,93.3804079579871));
#1040=CARTESIAN_POINT('',(-67.294880216151,-159.354333622861,95.3804079579871));
#1041=CARTESIAN_POINT('',(-69.294880216151,-159.354333622861,93.3804079579871));
#1042=CARTESIAN_POINT('',(-67.2948802161513,-144.354333622861,95.3804079579871));
#1043=CARTESIAN_POINT('Origin',(58.7051197838485,-144.354333622859,95.3804079579871));
#1044=CARTESIAN_POINT('',(58.7051197838485,-144.354333622859,95.3804079579871));
#1045=CARTESIAN_POINT('',(58.7051197838485,-144.354333622859,95.3804079579871));
#1046=CARTESIAN_POINT('',(58.7051197838488,-159.354333622859,95.3804079579871));
#1047=CARTESIAN_POINT('',(58.7051197838488,-159.354333622859,95.3804079579871));
#1048=CARTESIAN_POINT('',(58.7051197838485,-144.354333622859,95.3804079579871));
#1049=CARTESIAN_POINT('Origin',(60.7051197838485,-144.354333622859,93.3804079579871));
#1050=CARTESIAN_POINT('',(60.7051197838485,-144.354333622859,93.3804079579871));
#1051=CARTESIAN_POINT('',(58.7051197838485,-144.354333622859,95.3804079579871));
#1052=CARTESIAN_POINT('',(60.7051197838488,-159.354333622859,93.3804079579871));
#1053=CARTESIAN_POINT('',(58.7051197838488,-159.354333622859,95.3804079579871));
#1054=CARTESIAN_POINT('',(60.7051197838485,-144.354333622859,93.3804079579871));
#1055=CARTESIAN_POINT('Origin',(60.7051197838485,-144.354333622859,-102.619592042013));
#1056=CARTESIAN_POINT('',(60.7051197838485,-144.354333622859,-102.619592042013));
#1057=CARTESIAN_POINT('',(60.7051197838488,-159.354333622859,-102.619592042013));
#1058=CARTESIAN_POINT('Origin',(-4.29488021615112,-159.35433362286,-4.61959204201291));
#1059=CARTESIAN_POINT('Origin',(-4.29488021615136,-144.35433362286,-4.61959204201291));
#1060=UNCERTAINTY_MEASURE_WITH_UNIT(LENGTH_MEASURE(0.01),#1064,
'DISTANCE_ACCURACY_VALUE',
'Maximum model space distance between geometric entities at asserted c
onnectivities');
#1061=UNCERTAINTY_MEASURE_WITH_UNIT(LENGTH_MEASURE(0.01),#1064,
'DISTANCE_ACCURACY_VALUE',
'Maximum model space distance between geometric entities at asserted c
onnectivities');
#1062=(
GEOMETRIC_REPRESENTATION_CONTEXT(3)
GLOBAL_UNCERTAINTY_ASSIGNED_CONTEXT((#1060))
GLOBAL_UNIT_ASSIGNED_CONTEXT((#1064,#1065,#1066))
REPRESENTATION_CONTEXT('','3D')
);
#1063=(
GEOMETRIC_REPRESENTATION_CONTEXT(3)
GLOBAL_UNCERTAINTY_ASSIGNED_CONTEXT((#1061))
GLOBAL_UNIT_ASSIGNED_CONTEXT((#1064,#1065,#1066))
REPRESENTATION_CONTEXT('','3D')
);
#1064=(
LENGTH_UNIT()
NAMED_UNIT(*)
SI_UNIT(.MILLI.,.METRE.)
);
#1065=(
NAMED_UNIT(*)
PLANE_ANGLE_UNIT()
SI_UNIT($,.RADIAN.)
);
#1066=(
NAMED_UNIT(*)
SI_UNIT($,.STERADIAN.)
SOLID_ANGLE_UNIT()
);
#1067=SHAPE_DEFINITION_REPRESENTATION(#1068,#1069);
#1068=PRODUCT_DEFINITION_SHAPE('',$,#1071);
#1069=SHAPE_REPRESENTATION('',(#648),#1062);
#1070=PRODUCT_DEFINITION_CONTEXT('part definition',#1075,'design');
#1071=PRODUCT_DEFINITION('aDAPTER_ZAXIS','aDAPTER_ZAXIS v7',#1072,#1070);
#1072=PRODUCT_DEFINITION_FORMATION('',$,#1077);
#1073=PRODUCT_RELATED_PRODUCT_CATEGORY('aDAPTER_ZAXIS v7',
'aDAPTER_ZAXIS v7',(#1077));
#1074=APPLICATION_PROTOCOL_DEFINITION('international standard',
'automotive_design',2009,#1075);
#1075=APPLICATION_CONTEXT(
'Core Data for Automotive Mechanical Design Process');
#1076=PRODUCT_CONTEXT('part definition',#1075,'mechanical');
#1077=PRODUCT('aDAPTER_ZAXIS','aDAPTER_ZAXIS v7',$,(#1076));
#1078=PRESENTATION_STYLE_ASSIGNMENT((#1079));
#1079=SURFACE_STYLE_USAGE(.BOTH.,#1080);
#1080=SURFACE_SIDE_STYLE('',(#1081));
#1081=SURFACE_STYLE_FILL_AREA(#1082);
#1082=FILL_AREA_STYLE('Steel - Satin',(#1083));
#1083=FILL_AREA_STYLE_COLOUR('Steel - Satin',#1084);
#1084=COLOUR_RGB('Steel - Satin',0.627450980392157,0.627450980392157,0.627450980392157);
ENDSEC;
END-ISO-10303-21;
